<?xml version="1.0" encoding="UTF-8" standalone="no"?>
<svg
   id="Layer_1"
   data-name="Layer 1"
   viewBox="0 0 606.94073 405.07431"
   version="1.1"
   sodipodi:docname="vault-icon.svg"
   xml:space="preserve"
   width="606.94073"
   height="405.07431"
   inkscape:version="1.2.1 (9c6d41e410, 2022-07-14)"
   xmlns:inkscape="http://www.inkscape.org/namespaces/inkscape"
   xmlns:sodipodi="http://sodipodi.sourceforge.net/DTD/sodipodi-0.dtd"
   xmlns="http://www.w3.org/2000/svg"
   xmlns:svg="http://www.w3.org/2000/svg"><sodipodi:namedview
     id="namedview19"
     pagecolor="#ffffff"
     bordercolor="#000000"
     borderopacity="0.25"
     inkscape:showpageshadow="2"
     inkscape:pageopacity="0.0"
     inkscape:pagecheckerboard="0"
     inkscape:deskcolor="#d1d1d1"
     showgrid="false"
     inkscape:zoom="0.6204862"
     inkscape:cx="365.03632"
     inkscape:cy="-672.05362"
     inkscape:window-width="3840"
     inkscape:window-height="2054"
     inkscape:window-x="3061"
     inkscape:window-y="-11"
     inkscape:window-maximized="1"
     inkscape:current-layer="Layer_1" /><defs
     id="defs4"><style
       id="style2">.cls-1{fill:#24a338;}.cls-2{fill:#f0f1f1;}</style></defs><path
     class="cls-1"
     d="m 313.23638,176.08356 a 51.41,51.41 0 0 1 -13.16,-23.6 c -2.92,-11.64 0.2,-22 7.78,-31.06 a 57.05,57.05 0 0 1 14.39,-11.91 l 1.37,-0.85 c -1.31,-2.71 -2.57,-5.37 -3.88,-8 a 22.54,22.54 0 0 1 -2.66,-11.389999 c 0.34,-5.82 3.12,-10.36 7.55,-14 a 29.05,29.05 0 0 1 9.67,-5 q 26.27,-8.49 52.55,-17 a 63,63 0 0 1 10.16,-2.78 19.49,19.49 0 0 1 22.27,17 c 0.46,3.39 1.07,6.76 1.6,10 2.83,0 5.56,-0.12 8.27,0 a 60,60 0 0 1 17.56,3.14 c 10.12,3.68 16.68,10.71 19.77,20.999999 a 64.21,64.21 0 0 1 2.83,19 c 0,1.93 -0.3,3.86 -0.46,5.75 2.59,1.26 5.19,2.45 7.73,3.78 a 46.13,46.13 0 0 1 23,27 c 2.91,8.54 5.62,17.14 8.36,25.73 q 11.22,35.17 22.37,70.36 a 41.35,41.35 0 0 1 0.42,22.5 c -3,12.22 -8.91,22.71 -18.7,30.78 -6,4.95 -13,8.19 -20.32,10.63 -12.77,4.25 -25.6,8.3 -38.42,12.41 q -23.38,7.5 -46.79,14.94 a 77.28,77.28 0 0 1 -17.5,3.64 48.33,48.33 0 0 1 -13,-1 56.3,56.3 0 0 1 -16.12,-5.79 c -12.53,-6.77 -20.77,-16.93 -25,-30.65 -7.8,-25.17 -16,-50.28 -24.1,-75.42 a 177.41,177.41 0 0 1 -5.61,-19.6 c -2.79,-14.05 -0.39,-27.05 7.67,-39 z m 27,-5.8 c -0.84,1.15 -1.55,2.23 -2.38,3.22 -2.81,3.32 -5.79,6.52 -8.47,9.94 -7.94,10.1 -10.38,21.29 -6.31,33.67 2.86,8.7 5.76,17.39 8.55,26.11 7,21.9 13.95,43.82 21,65.7 a 24.57,24.57 0 0 0 3.16,6.59 35,35 0 0 0 10.29,9.38 c 10.38,6.44 21.44,7.42 33,3.8 11.17,-3.5 22.29,-7.14 33.44,-10.71 q 26.1,-8.36 52.21,-16.69 c 4.85,-1.56 9.64,-3.3 13.89,-6.22 8,-5.46 12.52,-13.19 15,-22.34 1.31,-4.88 1.68,-9.67 0.1,-14.62 q -15.25,-47.64 -30.38,-95.34 a 27.58,27.58 0 0 0 -8.1,-12.58 c -5.61,-5 -12.25,-7.89 -19.45,-9.66 -3.46,-0.85 -6.93,-1.64 -10.4,-2.44 -1,-0.23 -1.89,-0.88 -1.82,-1.81 0.09,-1.28 -0.26,-2.88 1.27,-3.71 5.46,-3 7.59,-7.77 7.06,-13.68 a 95.31,95.31 0 0 0 -2.19,-12.27 c -1.19,-5.33 -4.67,-8.569999 -9.85,-10.079999 a 48.47,48.47 0 0 0 -20.78,-1.19 c -1.46,0.22 -2.92,0.48 -4.37,0.8 -1.45,0.32 -1.89,1 -1.43,2.43 l 0.48,1.449999 c 0.84,2.57 0.84,2.56 3.59,2.26 a 8.81,8.81 0 0 1 5.17,0.58 c 1.15,0.58 1.39,1.59 0.46,2.43 a 13.67,13.67 0 0 1 -3.22,2.39 c -8.87,4.06 -17.69,8.27 -26.72,12 a 192.14,192.14 0 0 1 -40.24,11.2 c -4.2,0.73 -8.41,1.34 -12.64,1.88 a 7.47,7.47 0 0 1 -3,-0.51 c -1,-0.3 -1.33,-1.09 -0.59,-1.9 a 22.07,22.07 0 0 1 3,-2.79 c 1,-0.76 2.25,-1.27 3.33,-2 0.3,-0.2 0.64,-0.79 0.55,-1 -0.62,-1.73 -1.34,-3.42 -2.06,-5.18 -0.37,0.12 -0.63,0.2 -0.88,0.3 a 67.92,67.92 0 0 0 -12,6.41 38,38 0 0 0 -8.78,8 c -3.11,4.22 -4.65,8.89 -3.05,14.1 a 37.31,37.31 0 0 0 8.22,15 12.13,12.13 0 0 0 9.87,4.24 4.62,4.62 0 0 1 4.31,1.76 13.27,13.27 0 0 0 1.15,1.08 z m 59.46,-102.549999 c -0.72,0.17 -1.45,0.3 -2.14,0.52 l -60.41,19.55 a 7.53,7.53 0 0 0 -1.64,0.73 c -1.35,0.84 -1.51,1.48 -0.82,2.87 q 4.19,8.49 8.39,16.919999 3.39,6.84 6.78,13.68 a 3,3 0 0 0 3.5,1.81 c 2.35,-0.47 4.69,-1 7,-1.64 14.38,-3.86 28.46,-8.68 42.47,-13.68 1.59,-0.57 3.58,-0.88 3.73,-3.21 0,-0.07 0.12,-0.14 0.19,-0.2 0.86,-0.68 0.79,-1.53 0.62,-2.51 -1,-5.819999 -1.95,-11.659999 -2.93,-17.479999 -0.86,-5.15 -1.71,-10.3 -2.6,-15.44 -0.27,-1.48 -0.7,-1.76 -2.14,-1.92 z"
     id="path6" /><path
     class="cls-1"
     d="m 475.76638,181.89356 c 0.93,2.85 1.79,5.43 2.62,8 4.49,14 9,28 13.42,42 2,6.34 4,12.71 5.6,19.16 a 35.69,35.69 0 0 1 0.34,18.27 c -2.27,8.41 -7.66,14.19 -15.34,18 -8.07,4 -16.61,6.77 -25.16,9.49 q -23.67,7.51 -47.35,15 a 77.75,77.75 0 0 1 -20.61,3.45 c -7.84,0.26 -14.41,-2.84 -19.74,-8.59 a 42.74,42.74 0 0 1 -8.56,-15 c -3,-8.48 -5.92,-17 -8.79,-25.57 -3.79,-11.21 -7.42,-22.57 -11.32,-33.84 a 11.21,11.21 0 0 1 0.7,-9 c 2,-4.18 5.21,-7.28 8.82,-10 1.4,-1.06 2.87,-2 4.3,-3 3.1,-2.22 4.83,-7.65 3.6,-11.23 a 6.24,6.24 0 0 0 -3.51,-3.54 11.14,11.14 0 0 1 -6.57,-10.87 11.46,11.46 0 1 1 21.39,6.27 5.78,5.78 0 0 0 0.33,6.88 c 1.75,2.4 4.18,3.66 7.11,3.09 3.08,-0.6 6.07,-1.64 9.11,-2.41 a 53.34,53.34 0 0 1 19.17,-1.05 c 6.06,0.69 12.08,1.74 18.14,2.46 14.19,1.69 27.47,-0.84 39.46,-8.92 3.8,-2.57 7.52,-5.25 11.28,-7.88 0.45,-0.32 0.87,-0.65 1.56,-1.17 z m -63.61,86.39 a 30.93,30.93 0 0 0 -5.74,-16.75 17.63,17.63 0 0 0 -7.64,-6.47 8.12,8.12 0 0 0 -10.24,3.12 14.93,14.93 0 0 0 -2.43,7 30.21,30.21 0 0 0 5.82,21.19 17.13,17.13 0 0 0 6.78,5.82 c 4.59,2.09 8.91,0.67 11.36,-3.75 1.58,-2.82 2.08,-5.95 2.09,-10.12 z m 50.34,-15.8 a 31.12,31.12 0 0 0 -5.69,-17 17.86,17.86 0 0 0 -7.24,-6.32 c -4.49,-2 -8.84,-0.55 -11.23,3.78 a 18.39,18.39 0 0 0 -2.11,9.37 30.82,30.82 0 0 0 4,14.73 c 2.1,3.78 4.75,7.08 8.78,9 a 8.28,8.28 0 0 0 11.45,-3.76 c 1.5,-2.77 2.02,-5.84 2.04,-9.76 z"
     id="path8" /><path
     class="cls-1"
     d="m 454.87638,181.17356 a 11.500027,11.500027 0 0 1 -23,-0.05 11.61,11.61 0 0 1 11.53,-11.48 11.47,11.47 0 0 1 11.47,11.53 z"
     id="path10" /><path
     class="cls-1"
     d="m 415.32638,167.41356 a 6.84,6.84 0 1 1 0.05,13.67 6.84,6.84 0 0 1 -0.05,-13.67 z"
     id="path12" /><path
     class="cls-2"
     d="m 412.15638,268.32356 c 0,4.17 -0.51,7.3 -2.09,10.17 -2.45,4.42 -6.77,5.84 -11.36,3.75 a 17.13,17.13 0 0 1 -6.78,-5.82 30.21,30.21 0 0 1 -5.85,-21.19 14.93,14.93 0 0 1 2.43,-7 8.12,8.12 0 0 1 10.24,-3.12 17.63,17.63 0 0 1 7.64,6.47 30.93,30.93 0 0 1 5.77,16.74 z"
     id="path14" /><path
     class="cls-2"
     d="m 462.49638,252.52356 c 0,3.92 -0.54,7 -2.07,9.83 a 8.28,8.28 0 0 1 -11.45,3.76 c -4,-1.92 -6.68,-5.22 -8.78,-9 a 30.82,30.82 0 0 1 -4,-14.73 18.39,18.39 0 0 1 2.11,-9.37 c 2.39,-4.33 6.74,-5.8 11.23,-3.78 a 17.86,17.86 0 0 1 7.24,6.32 31.12,31.12 0 0 1 5.72,16.97 z"
     id="path16" /><path
     style="fill:#24a338;fill-opacity:1"
     d="M 52.623268,403.15182 C 28.150958,392.03928 9.2804081,337.37094 1.6821081,255.5743 -0.31106192,234.11748 -0.59746192,178.45519 1.1701581,156.0743 7.4984681,75.94787 26.287818,17.3123 50.126048,3.29861 L 54.760278,0.5743 102.6742,0.28715 150.58813,0 l 5.30495,2.59547 c 19.85844,9.71583 37.25404,52.4487 45.78762,112.47883 2.22114,15.62477 4.43885,36.13512 4.64944,43 0.0422,1.375 1.13434,-1.325 2.42703,-6 8.06239,-29.15757 20.02235,-52.99669 37.75545,-75.2558 46.01044,-57.75365 118.39345,-85.676 191.26478,-73.78198 82.99395,13.54622 149.54611,78.19307 165.4757,160.73832 9.49828,49.21901 0.48938,100.44801 -25.19155,143.25132 -30.60618,51.0124 -81.5058,85.23585 -142.3074,95.68345 -13.92802,2.39326 -48.05972,2.39326 -61.98774,0 -21.39461,-3.67626 -38.25907,-9.03614 -57.00613,-18.11777 -35.21717,-17.06022 -64.30914,-43.32243 -84.78475,-76.53778 -9.4363,-15.30747 -19.32328,-39.19139 -24.0013,-57.97976 l -1.36941,-5.5 -0.70852,9 c -2.40865,30.59589 -8.44119,66.3381 -15.07672,89.32809 -9.18147,31.81088 -21.54143,52.99754 -34.76103,59.58515 l -5.19096,2.58676 -47.05365,-0.022 C 59.936238,405.0318 56.481048,404.90354 52.623268,403.15178 Z M 123.62616,389.8243 c -0.41368,-0.6875 -2.23822,-3.58773 -4.05453,-6.44495 -16.2561,-25.57238 -28.524712,-79.04985 -32.417702,-141.30505 -1.46348,-23.40336 -0.58478,-79.82541 1.57288,-100.99651 5.29341,-51.93921 16.857532,-96.9276 30.513302,-118.70722 2.21109,-3.52648 4.02017,-6.83579 4.02017,-7.35402 0,-0.56876 -11.91112,-0.94225 -30.049662,-0.94225 -34.05395,0 -32.98448,-0.21313 -40.1744,8.00603 -19.61229,22.4198 -33.55943,81.04433 -36.94081,155.27473 -3.92013,86.05747 12.40903,177.99385 36.46897,205.32738 7.65664,8.6984 6.11916,8.38389 41.00492,8.38812 24.382472,0.003 30.652122,-0.257 30.056862,-1.24626 z M 56.028418,344.01552 c -6.49522,-3.42941 -8.54325,-10.51767 -4.80862,-16.64267 6.5473,-10.73793 26.93014,-8.18333 29.54068,3.70237 0.88578,4.03291 -2.02206,9.82119 -6.39808,12.73588 -4.42337,2.94623 -12.96078,3.04142 -18.33398,0.20442 z m -9.64534,-125.98288 c -12.75842,-2.86272 -16.48244,-20.58163 -5.90818,-28.11117 3.20864,-2.28474 10.12578,-3.48052 14.20753,-2.45607 4.43927,1.11419 9.23962,6.20857 10.47566,11.11733 3.03849,12.06695 -6.703,22.15861 -18.77501,19.44991 z m 11.3772,-134.77978 c -5.19993,-2.4649 -7.44917,-5.09046 -8.17091,-9.53801 -1.27192,-7.83796 4.70258,-13.76058 14.51438,-14.38838 12.89488,-0.82505 20.84901,9.65656 14.58401,19.21817 -3.73363,5.69824 -13.97721,8.00282 -20.92748,4.70822 z m 99.534432,284.30363 c 1.43195,-0.74049 4.50783,-3.28941 6.83529,-5.66427 4.3272,-4.41531 11.72036,-15.56118 10.87958,-16.40196 -0.25672,-0.25671 -2.10074,1.52731 -4.09784,3.96451 -3.98832,4.86722 -10.6513,8.63174 -15.21718,8.59757 -33.58193,-0.25135 -56.419242,-113.67716 -43.42459,-215.67645 7.24015,-56.83037 24.63882,-95.13288 43.28015,-95.27963 5.23999,-0.0413 11.87294,4.35862 18.05731,11.97804 2.81115,3.46346 2.80609,3.43295 -0.48438,-2.92239 C 169.14388,48.4664 161.02848,39.29322 156.55462,37.42392 131.70407,27.0407 109.71387,73.40004 101.69674,153.0743 c -8.844822,87.89984 7.68973,186.6957 35.31524,211.01264 6.82374,6.0065 13.2508,7.10591 20.28273,3.46955 z m 278.46557,-15.28027 c 53.22813,-11.57729 96.8049,-50.44944 113.88099,-101.58622 9.25501,-27.71544 10.02284,-61.74449 2.01658,-89.3724 -14.07322,-48.56373 -51.03637,-87.47435 -97.98559,-103.14811 -17.70639,-5.91119 -27.96217,-7.47947 -48.91198,-7.47947 -20.92164,0 -31.2084,1.56933 -48.81593,7.44729 -44.25845,14.77489 -80.83111,51.44447 -95.76481,96.0186 -10.55247,31.49701 -10.38701,67.04087 0.4583,98.45328 18.15845,52.59418 65.08231,91.97771 120.29053,100.96069 12.60844,2.05154 42.71801,1.34115 54.83191,-1.29366 z"
     id="path314"
     sodipodi:nodetypes="cssscccssssssssssssscssscsccsssssssssscsssssssssssssssssssssssssssssssssssssss" /></svg>
