<?xml version="1.0" encoding="UTF-8" standalone="no"?>
<svg
   id="Layer_1"
   data-name="Layer 1"
   viewBox="0 0 728.65741 487.68876"
   version="1.1"
   sodipodi:docname="vault-icon.svg"
   xml:space="preserve"
   width="728.65741"
   height="487.68875"
   inkscape:version="1.2.1 (9c6d41e410, 2022-07-14)"
   xmlns:inkscape="http://www.inkscape.org/namespaces/inkscape"
   xmlns:sodipodi="http://sodipodi.sourceforge.net/DTD/sodipodi-0.dtd"
   xmlns="http://www.w3.org/2000/svg"
   xmlns:svg="http://www.w3.org/2000/svg"><sodipodi:namedview
     id="namedview19"
     pagecolor="#ffffff"
     bordercolor="#000000"
     borderopacity="0.25"
     inkscape:showpageshadow="2"
     inkscape:pageopacity="0.0"
     inkscape:pagecheckerboard="0"
     inkscape:deskcolor="#d1d1d1"
     showgrid="false"
     inkscape:zoom="1.755"
     inkscape:cx="480.91168"
     inkscape:cy="335.04274"
     inkscape:window-width="3840"
     inkscape:window-height="2054"
     inkscape:window-x="3061"
     inkscape:window-y="-11"
     inkscape:window-maximized="1"
     inkscape:current-layer="Layer_1" /><defs
     id="defs4"><style
       id="style2">.cls-1{fill:#24a338;}.cls-2{fill:#f0f1f1;}</style></defs><g
     id="g2369"
     transform="matrix(1.1893205,0,0,1.1893205,-100.38474,-35.012326)"><path
       class="cls-1"
       d="m 399.71188,211.42509 a 51.41,51.41 0 0 1 -13.16,-23.6 c -2.92,-11.64 0.2,-22 7.78,-31.06 a 57.05,57.05 0 0 1 14.39,-11.91 l 1.37,-0.85 c -1.31,-2.71 -2.57,-5.37 -3.88,-8 a 22.54,22.54 0 0 1 -2.66,-11.39 c 0.34,-5.82 3.12,-10.36 7.55,-14 a 29.05,29.05 0 0 1 9.67,-5 q 26.27,-8.490001 52.55,-17.000001 a 63,63 0 0 1 10.16,-2.779997 19.49,19.49 0 0 1 22.27,16.999998 c 0.46,3.39 1.07,6.76 1.6,10 2.83,0 5.56,-0.12 8.27,0 a 60,60 0 0 1 17.56,3.14 c 10.12,3.68 16.68,10.71 19.77,21 a 64.21,64.21 0 0 1 2.83,19 c 0,1.93 -0.3,3.86 -0.46,5.75 2.59,1.26 5.19,2.45 7.73,3.78 a 46.13,46.13 0 0 1 23,27 c 2.91,8.54 5.62,17.14 8.36,25.73 q 11.22,35.17 22.37,70.36 a 41.35,41.35 0 0 1 0.42,22.5 c -3,12.22 -8.91,22.71 -18.7,30.78 -6,4.95 -13,8.19 -20.32,10.63 -12.77,4.25 -25.6,8.3 -38.42,12.41 q -23.38,7.5 -46.79,14.94 a 77.28,77.28 0 0 1 -17.5,3.64 48.33,48.33 0 0 1 -13,-1 56.3,56.3 0 0 1 -16.12,-5.79 c -12.53,-6.77 -20.77,-16.93 -25,-30.65 -7.8,-25.17 -16,-50.28 -24.1,-75.42 a 177.41,177.41 0 0 1 -5.61,-19.6 c -2.79,-14.05 -0.39,-27.05 7.67,-39 z m 27,-5.8 c -0.84,1.15 -1.55,2.23 -2.38,3.22 -2.81,3.32 -5.79,6.52 -8.47,9.94 -7.94,10.1 -10.38,21.29 -6.31,33.67 2.86,8.7 5.76,17.39 8.55,26.11 7,21.9 13.95,43.82 21,65.7 a 24.57,24.57 0 0 0 3.16,6.59 35,35 0 0 0 10.29,9.38 c 10.38,6.44 21.44,7.42 33,3.8 11.17,-3.5 22.29,-7.14 33.44,-10.71 q 26.1,-8.36 52.21,-16.69 c 4.85,-1.56 9.64,-3.3 13.89,-6.22 8,-5.46 12.52,-13.19 15,-22.34 1.31,-4.88 1.68,-9.67 0.1,-14.62 q -15.25,-47.64 -30.38,-95.34 a 27.58,27.58 0 0 0 -8.1,-12.58 c -5.61,-5 -12.25,-7.89 -19.45,-9.66 -3.46,-0.85 -6.93,-1.64 -10.4,-2.44 -1,-0.23 -1.89,-0.88 -1.82,-1.81 0.09,-1.28 -0.26,-2.88 1.27,-3.71 5.46,-3 7.59,-7.77 7.06,-13.68 a 95.31,95.31 0 0 0 -2.19,-12.27 c -1.19,-5.33 -4.67,-8.57 -9.85,-10.08 a 48.47,48.47 0 0 0 -20.78,-1.19 c -1.46,0.22 -2.92,0.48 -4.37,0.8 -1.45,0.32 -1.89,1 -1.43,2.43 l 0.48,1.45 c 0.84,2.57 0.84,2.56 3.59,2.26 a 8.81,8.81 0 0 1 5.17,0.58 c 1.15,0.58 1.39,1.59 0.46,2.43 a 13.67,13.67 0 0 1 -3.22,2.39 c -8.87,4.06 -17.69,8.27 -26.72,12 a 192.14,192.14 0 0 1 -40.24,11.2 c -4.2,0.73 -8.41,1.34 -12.64,1.88 a 7.47,7.47 0 0 1 -3,-0.51 c -1,-0.3 -1.33,-1.09 -0.59,-1.9 a 22.07,22.07 0 0 1 3,-2.79 c 1,-0.76 2.25,-1.27 3.33,-2 0.3,-0.2 0.64,-0.79 0.55,-1 -0.62,-1.73 -1.34,-3.42 -2.06,-5.18 -0.37,0.12 -0.63,0.2 -0.88,0.3 a 67.92,67.92 0 0 0 -12,6.41 38,38 0 0 0 -8.78,8 c -3.11,4.22 -4.65,8.89 -3.05,14.1 a 37.31,37.31 0 0 0 8.22,15 12.13,12.13 0 0 0 9.87,4.24 4.62,4.62 0 0 1 4.31,1.76 13.27,13.27 0 0 0 1.15,1.08 z m 59.46,-102.55 c -0.72,0.17 -1.45,0.3 -2.14,0.52 l -60.41,19.55 a 7.53,7.53 0 0 0 -1.64,0.73 c -1.35,0.84 -1.51,1.48 -0.82,2.87 q 4.19,8.49 8.39,16.92 3.39,6.84 6.78,13.68 a 3,3 0 0 0 3.5,1.81 c 2.35,-0.47 4.69,-1 7,-1.64 14.38,-3.86 28.46,-8.68 42.47,-13.68 1.59,-0.57 3.58,-0.88 3.73,-3.21 0,-0.07 0.12,-0.14 0.19,-0.2 0.86,-0.68 0.79,-1.53 0.62,-2.51 -1,-5.82 -1.95,-11.66 -2.93,-17.48 -0.86,-5.15 -1.71,-10.3 -2.6,-15.44 -0.27,-1.48 -0.7,-1.76 -2.14,-1.92 z"
       id="path6" /><path
       class="cls-1"
       d="m 562.24188,217.23509 c 0.93,2.85 1.79,5.43 2.62,8 4.49,14 9,28 13.42,42 2,6.34 4,12.71 5.6,19.16 a 35.69,35.69 0 0 1 0.34,18.27 c -2.27,8.41 -7.66,14.19 -15.34,18 -8.07,4 -16.61,6.77 -25.16,9.49 q -23.67,7.51 -47.35,15 a 77.75,77.75 0 0 1 -20.61,3.45 c -7.84,0.26 -14.41,-2.84 -19.74,-8.59 a 42.74,42.74 0 0 1 -8.56,-15 c -3,-8.48 -5.92,-17 -8.79,-25.57 -3.79,-11.21 -7.42,-22.57 -11.32,-33.84 a 11.21,11.21 0 0 1 0.7,-9 c 2,-4.18 5.21,-7.28 8.82,-10 1.4,-1.06 2.87,-2 4.3,-3 3.1,-2.22 4.83,-7.65 3.6,-11.23 a 6.24,6.24 0 0 0 -3.51,-3.54 11.14,11.14 0 0 1 -6.57,-10.87 11.46,11.46 0 1 1 21.39,6.27 5.78,5.78 0 0 0 0.33,6.88 c 1.75,2.4 4.18,3.66 7.11,3.09 3.08,-0.6 6.07,-1.64 9.11,-2.41 a 53.34,53.34 0 0 1 19.17,-1.05 c 6.06,0.69 12.08,1.74 18.14,2.46 14.19,1.69 27.47,-0.84 39.46,-8.92 3.8,-2.57 7.52,-5.25 11.28,-7.88 0.45,-0.32 0.87,-0.65 1.56,-1.17 z m -63.61,86.39 a 30.93,30.93 0 0 0 -5.74,-16.75 17.63,17.63 0 0 0 -7.64,-6.47 8.12,8.12 0 0 0 -10.24,3.12 14.93,14.93 0 0 0 -2.43,7 30.21,30.21 0 0 0 5.82,21.19 17.13,17.13 0 0 0 6.78,5.82 c 4.59,2.09 8.91,0.67 11.36,-3.75 1.58,-2.82 2.08,-5.95 2.09,-10.12 z m 50.34,-15.8 a 31.12,31.12 0 0 0 -5.69,-17 17.86,17.86 0 0 0 -7.24,-6.32 c -4.49,-2 -8.84,-0.55 -11.23,3.78 a 18.39,18.39 0 0 0 -2.11,9.37 30.82,30.82 0 0 0 4,14.73 c 2.1,3.78 4.75,7.08 8.78,9 a 8.28,8.28 0 0 0 11.45,-3.76 c 1.5,-2.77 2.02,-5.84 2.04,-9.76 z"
       id="path8" /><path
       class="cls-1"
       d="m 541.35188,216.51509 a 11.500027,11.500027 0 0 1 -23,-0.05 11.61,11.61 0 0 1 11.53,-11.48 11.47,11.47 0 0 1 11.47,11.53 z"
       id="path10" /><path
       class="cls-1"
       d="m 501.80188,202.75509 a 6.84,6.84 0 1 1 0.05,13.67 6.84,6.84 0 0 1 -0.05,-13.67 z"
       id="path12" /></g><path
     style="fill:#24a338;fill-opacity:1;stroke-width:1.19893"
     d="M 63.091684,483.35135 C 33.751064,470.02818 11.126574,404.48459 2.0167345,306.41604 -0.37294555,280.69078 -0.71631555,213.95552 1.4029445,187.12237 8.9901545,91.05628 31.517294,20.756267 60.097694,3.954806 L 65.653814,0.688546 123.09932,0.344273 180.54483,0 186.9051,3.11179 c 23.8089,11.64861 44.66503,62.88239 54.89621,134.85439 2.66299,18.73303 5.32188,43.32353 5.57436,51.55405 1.14388,44.40118 2.47522,76.44929 -0.52015,114.49794 -2.88781,36.68237 -10.1204,79.53483 -18.07595,107.09825 -11.00795,38.13906 -25.82669,63.54041 -41.67609,71.4385 l -6.2236,3.10135 -56.41409,-0.0264 c -52.606356,-0.0246 -56.748896,-0.17835 -61.374106,-2.27859 z m 85.127596,-15.97878 c -0.49598,-0.82427 -2.68348,-4.30144 -4.86111,-7.72706 -19.48994,-30.65952 -34.19917,-94.77534 -38.8666,-169.41505 -1.75461,-28.05902 -0.70111,-95.70518 1.88578,-121.08788 6.34644,-62.27154 20.21102,-116.209534 36.58335,-142.321803 2.65095,-4.228008 4.81991,-8.195643 4.81991,-8.816965 0,-0.681904 -14.28061,-1.129693 -36.02748,-1.129693 -40.828346,0 -39.546126,-0.255528 -48.166346,9.59868 -23.51379,26.879801 -40.23545,97.166591 -44.28949,186.163741 -4.69997,103.177 14.87757,213.4024 43.72379,246.17343 9.17978,10.42878 7.33645,10.05171 49.162076,10.05678 29.23291,0.004 36.74979,-0.30813 36.03612,-1.49418 z M 67.174224,412.45099 c -7.78732,-4.11163 -10.24277,-12.60997 -5.7652,-19.95342 7.84976,-12.87404 32.28739,-9.81125 35.41725,4.43888 1.06199,4.83519 -2.42431,11.77494 -7.67086,15.26945 -5.30332,3.53233 -15.53909,3.64645 -21.98119,0.24509 z m -11.5641,-151.04483 c -15.29647,-3.4322 -19.76131,-24.67596 -7.0835,-33.70336 3.84694,-2.73925 12.14011,-4.1729 17.03385,-2.94466 5.32238,1.33584 11.07767,7.44365 12.5596,13.32892 3.64294,14.46744 -8.03644,26.56665 -22.50995,23.3191 z M 69.250604,99.814462 c -6.23436,-2.955246 -8.93104,-6.103112 -9.79636,-11.435419 -1.52494,-9.397176 5.63807,-16.497991 17.40175,-17.25068 15.46008,-0.989178 24.996526,11.577553 17.48523,23.041266 -4.47637,6.831801 -16.75772,9.594831 -25.09062,5.644833 z M 188.58556,440.67499 c 1.93277,0 5.40457,-3.94377 8.19504,-6.79107 5.18801,-5.29365 14.05191,-18.65678 13.04387,-19.66482 44.27469,-103.58882 42.48422,-245.65036 0.0283,-343.393071 -3.49761,-9.597005 -14.55557,-22.429546 -22.15455,-25.957319 -29.7941,-12.448768 -56.15884,43.132897 -65.77083,138.65686 -10.60434,105.38588 9.21946,223.83533 42.34055,252.98967 8.18119,7.20138 14.82624,4.15975 24.3176,4.15975 z"
     id="path314"
     sodipodi:nodetypes="cssscccssccsscsccsssssssssscsssssssssssssssssscccssss" /><circle
     style="fill:none;stroke:#24a338;stroke-width:21.0893;stroke-linecap:round;stroke-linejoin:bevel;stroke-dasharray:none;stroke-opacity:1;paint-order:stroke fill markers;stop-color:#000000"
     id="path507"
     cx="485.98291"
     cy="245.01425"
     r="232.12987" /><circle
     style="fill:none;stroke:#979797;stroke-width:18.8115;stroke-linecap:round;stroke-linejoin:bevel;stroke-dasharray:none;stroke-opacity:1;paint-order:stroke fill markers;stop-color:#000000"
     id="path507-2"
     cx="485.98291"
     cy="245.01425"
     r="207.05795" /><circle
     style="fill:none;stroke:#979797;stroke-width:10;stroke-linecap:round;stroke-linejoin:bevel;stroke-dasharray:none;stroke-opacity:1;paint-order:stroke fill markers;stop-color:#000000"
     id="path1551"
     cx="63.190876"
     cy="158.97435"
     r="7.9772081" /><circle
     style="fill:none;stroke:#979797;stroke-width:10;stroke-linecap:round;stroke-linejoin:bevel;stroke-dasharray:none;stroke-opacity:1;paint-order:stroke fill markers;stop-color:#000000"
     id="path1551-7"
     cx="64.900284"
     cy="326.49573"
     r="7.9772081" /></svg>
